<svg width="22" height="22" color="#444" viewBox="0 0 22 22" fill="" xmlns="http://www.w3.org/2000/svg">
<path d="M19.979 3.46205V2.77247C19.979 2.66839 19.9053 2.58426 19.8141 2.58426H17.5052C17.414 2.58426 17.3402 2.66839 17.3402 2.77247V3.24468C17.0864 3.09204 16.6883 2.78847 16.5568 2.32529C16.3366 1.54856 16.1499 0.760918 16.1494 0.760918C16.1065 0.497806 15.894 0 15.397 0H11.5899C11.0929 0 10.8804 0.497805 10.8405 0.746425C10.8387 0.75433 10.6514 1.54517 10.4302 2.32529C10.252 2.95315 9.58378 3.28872 9.45065 3.34988H4.78463C4.71122 3.34763 4.66272 3.34913 4.64936 3.34988H2.73659C1.22766 3.34988 0 4.75033 0 6.47204V16.4366C0 17.2164 0.25355 17.9283 0.669096 18.476C0.67553 18.4852 0.681631 18.4937 0.689384 18.5014C1.19121 19.1481 1.92167 19.5588 2.73659 19.5588H8.44371C9.75897 21.0657 11.578 22 13.5848 22C15.5918 22 17.4107 21.0657 18.7259 19.5588H19.2634C20.0778 19.5588 20.8081 19.1487 21.3098 18.5024C21.3185 18.4939 21.3256 18.4841 21.3327 18.4736C21.7473 17.9263 22 17.215 22 16.4366V6.47204C21.9998 5.03339 21.1414 3.82228 19.979 3.46205ZM17.6702 2.96067H19.6491V3.34988H19.2632H17.6702V2.96067ZM2.73643 3.72648H4.75972C5.00156 3.73269 5.62793 3.78934 5.95406 4.20829C6.13321 4.43847 6.19475 4.7556 6.13684 5.15158C5.97353 6.26972 3.99148 6.18126 2.67935 6.12216C2.27321 6.10391 1.9225 6.08847 1.67093 6.10748C0.773518 6.1758 0.544381 6.66871 0.486808 6.88289H0.329763V6.47223C0.329763 4.95811 1.40946 3.72648 2.73643 3.72648ZM2.73643 19.1826C2.15345 19.1826 1.6183 18.9445 1.20127 18.5494H5.98376C6.07498 18.5494 6.14872 18.4653 6.14872 18.3612C6.14872 18.2571 6.07498 18.173 5.98376 18.173H4.71056V16.8693C4.71056 16.7652 4.63682 16.6811 4.5456 16.6811C4.45437 16.6811 4.38063 16.7652 4.38063 16.8693V18.173H0.873817C0.534155 17.6995 0.329763 17.095 0.329763 16.4368V7.25912H4.7678C4.28165 7.89695 4.32405 9.0467 4.35226 9.7935L4.35539 9.87594C4.39729 11.0182 4.39102 12.1845 4.38508 13.3124C4.38294 13.7219 4.3808 14.1315 4.3808 14.5406C4.3808 14.6447 4.45454 14.7288 4.54576 14.7288C4.63699 14.7288 4.71073 14.6447 4.71073 14.5406C4.71073 14.1322 4.71303 13.7234 4.71501 13.3145C4.72095 12.182 4.72722 11.0114 4.68499 9.86013L4.68186 9.77751C4.65084 8.95824 4.6002 7.59412 5.32175 7.2593H9.04929C7.39041 8.77832 6.32556 11.1087 6.32556 13.7185C6.32556 13.8541 6.32886 13.989 6.33464 14.1236C6.33629 14.1637 6.33959 14.2034 6.34173 14.2435C6.34701 14.3385 6.35278 14.4335 6.3607 14.528C6.36433 14.5707 6.36911 14.6129 6.3734 14.6554C6.38264 14.7484 6.39254 14.8412 6.40442 14.9334C6.40937 14.9716 6.41497 15.0096 6.42025 15.0477C6.43411 15.1461 6.44945 15.244 6.46644 15.3416C6.47156 15.3714 6.477 15.4011 6.48244 15.4307C6.50241 15.5394 6.52451 15.6477 6.54827 15.7551C6.55206 15.7724 6.55586 15.7898 6.55981 15.8069C6.75035 16.6448 7.05553 17.4418 7.46613 18.1728H6.62811C6.53688 18.1728 6.46314 18.257 6.46314 18.361C6.46314 18.4651 6.53688 18.5492 6.62811 18.5492H7.68966C7.8274 18.767 7.97405 18.9787 8.13126 19.1824H2.73643V19.1826ZM13.5847 21.6236C10.3639 21.6236 7.6494 19.1031 6.87655 15.7004C6.87572 15.6964 6.87473 15.6926 6.87374 15.6889C6.84817 15.5752 6.82524 15.4604 6.80396 15.3448C6.80132 15.33 6.79802 15.3153 6.79538 15.3004C6.77658 15.1954 6.76057 15.0894 6.74556 14.9829C6.7421 14.9579 6.73765 14.9332 6.73435 14.9082C6.72131 14.8098 6.71092 14.7104 6.70119 14.6108C6.69789 14.5783 6.6936 14.5459 6.69079 14.5133C6.68222 14.4164 6.67661 14.3185 6.67116 14.2205C6.66918 14.1857 6.66605 14.1512 6.66457 14.1164C6.65879 13.9845 6.65566 13.8518 6.65566 13.7182C6.65566 9.35931 9.76392 5.81313 13.5845 5.81313C17.4051 5.81313 20.5135 9.35931 20.5135 13.7182C20.5135 13.8516 20.5104 13.9845 20.5046 14.1164C20.5031 14.1516 20.4998 14.1864 20.4978 14.2214C20.4924 14.3191 20.4868 14.4166 20.4784 14.5132C20.4754 14.5465 20.4711 14.5792 20.4678 14.6123C20.4581 14.7113 20.4478 14.81 20.4348 14.9078C20.4314 14.9336 20.4269 14.9592 20.4233 14.9848C20.4083 15.0904 20.3924 15.1956 20.3738 15.2997C20.371 15.3155 20.3675 15.3311 20.3647 15.3469C20.3436 15.4615 20.321 15.5754 20.2954 15.6881C20.2944 15.6926 20.2933 15.6972 20.2921 15.7017C19.5191 19.1041 16.8049 21.6236 13.5847 21.6236ZM10.3994 6.27894C10.615 5.34468 11.3796 2.04618 11.5594 1.45973C11.7186 0.94216 12.1185 1.015 12.1613 1.02478C12.1726 1.02761 12.1841 1.02873 12.1955 1.02873H14.6988C15.3833 1.02873 15.4587 1.38181 15.4608 1.3916C15.462 1.39988 15.4636 1.40816 15.4656 1.41625L16.7198 6.25033C15.7703 5.72938 14.7068 5.43709 13.5845 5.43709C12.4426 5.4369 11.3618 5.74048 10.3994 6.27894ZM19.0377 19.1826C19.1949 18.9789 19.3418 18.7672 19.4793 18.5494H20.7984C20.3815 18.9445 19.8464 19.1826 19.2632 19.1826H19.0377ZM21.1257 18.1728H19.7029C20.1138 17.4415 20.419 16.644 20.6095 15.8059C20.6133 15.7896 20.6168 15.773 20.6204 15.7566C20.6445 15.6484 20.6666 15.5394 20.6867 15.4297C20.692 15.4005 20.6973 15.3716 20.7024 15.3424C20.7194 15.2443 20.7347 15.1459 20.7487 15.0469C20.754 15.0093 20.7596 14.9716 20.7644 14.9338C20.7763 14.8412 20.7864 14.748 20.7956 14.6547C20.7997 14.6125 20.8045 14.5706 20.8081 14.5282C20.8162 14.4332 20.822 14.3377 20.8273 14.2419C20.8294 14.2024 20.8325 14.1633 20.8342 14.1236C20.8398 13.989 20.8433 13.8539 20.8433 13.7184C20.8433 11.183 19.8385 8.91157 18.2606 7.39124H21.6696V16.4368C21.6699 17.095 21.4653 17.6995 21.1257 18.1728ZM21.6699 7.01482H18.1421L17.4236 4.54142C17.3947 4.4428 17.3015 4.38991 17.215 4.42191C17.1286 4.45466 17.0816 4.56099 17.1103 4.6598L17.7807 6.96702C17.5709 6.79669 17.3529 6.6386 17.1276 6.49406L15.7838 1.31556C15.761 1.20433 15.6032 0.65251 14.699 0.65251H12.2117C11.9551 0.600754 11.4502 0.677355 11.2481 1.33551C11.035 2.03075 10.0642 6.2524 10.0229 6.43176C10.017 6.45774 10.0165 6.48371 10.0199 6.50874C9.83848 6.62599 9.66164 6.75077 9.49041 6.88478C9.48744 6.88459 9.48496 6.88289 9.48183 6.88289H9.37559L10.0694 4.31105C10.0962 4.21187 10.0473 4.10647 9.96023 4.0758C9.87329 4.04549 9.78091 4.10139 9.75402 4.20039L9.03032 6.88289H0.847751C0.930729 6.73778 1.14419 6.52492 1.69286 6.48314C1.92711 6.46507 2.26958 6.48069 2.66648 6.49839C4.17937 6.56595 6.25117 6.65893 6.46232 5.21332C6.53738 4.69989 6.44929 4.27755 6.20069 3.95836C6.13041 3.86821 6.05024 3.79217 5.96528 3.72667H9.48183C9.49173 3.72667 9.50031 3.72216 9.50987 3.72028C9.51911 3.71839 9.52852 3.71933 9.53759 3.71576C9.57668 3.69957 10.4967 3.31337 10.744 2.44141C10.9678 1.65245 11.1572 0.852763 11.1618 0.831119C11.1699 0.784632 11.2501 0.376789 11.5899 0.376789H15.397C15.7368 0.376789 15.817 0.784632 15.8277 0.84467C15.8297 0.852574 16.019 1.65226 16.2429 2.44122C16.4903 3.31318 17.4102 3.69938 17.4493 3.71557C17.4676 3.7231 17.4866 3.72667 17.505 3.72667H19.2631C20.59 3.72667 21.6697 4.95848 21.6697 6.47241V7.01482H21.6699Z" fill="black"/>
<path d="M13.5847 7.49984C10.5792 7.49984 8.13407 10.2894 8.13407 13.7184C8.13407 17.1475 10.5792 19.9371 13.5847 19.9371C16.5902 19.9371 19.0353 17.1475 19.0353 13.7184C19.0353 10.2896 16.5902 7.49984 13.5847 7.49984ZM13.5847 19.5607C10.7611 19.5607 8.464 16.9397 8.464 13.7184C8.464 10.497 10.7611 7.87625 13.5847 7.87625C16.4082 7.87625 18.7053 10.497 18.7053 13.7184C18.7053 16.9397 16.4082 19.5607 13.5847 19.5607Z" fill="black"/>
<path d="M13.5847 10.4295C11.9951 10.4295 10.7017 11.905 10.7017 13.7185C10.7017 15.5323 11.9951 17.0078 13.5847 17.0078C15.1743 17.0078 16.4676 15.5323 16.4676 13.7185C16.4676 11.905 15.1743 10.4295 13.5847 10.4295ZM13.5847 16.6312C12.177 16.6312 11.0317 15.3247 11.0317 13.7184C11.0317 12.1124 12.1769 10.8057 13.5847 10.8057C14.9925 10.8057 16.1376 12.1122 16.1376 13.7184C16.1376 15.3247 14.9923 16.6312 13.5847 16.6312Z" fill="black"/>
<path d="M13.5847 9.64878C11.6178 9.64878 10.0176 11.4744 10.0176 13.7184C10.0176 15.9625 11.6178 17.7881 13.5847 17.7881C14.2612 17.7879 14.9194 17.5711 15.4879 17.161C15.5649 17.1053 15.5878 16.9892 15.5393 16.9013C15.4908 16.8138 15.389 16.7876 15.3117 16.8426C14.7958 17.2149 14.1987 17.4113 13.5847 17.4115C11.7998 17.4115 10.3476 15.7546 10.3476 13.7182C10.3476 11.6818 11.7998 10.025 13.5847 10.025C15.3696 10.025 16.8218 11.6818 16.8218 13.7182C16.8218 14.3394 16.6842 14.9532 16.4239 15.4939C16.3798 15.5848 16.409 15.6994 16.489 15.7493C16.5685 15.7995 16.6692 15.7661 16.7129 15.675C16.9999 15.0791 17.1517 14.4025 17.1517 13.7182C17.1517 11.4746 15.5515 9.64878 13.5847 9.64878Z" fill="black"/>
<path d="M16.1903 16.022L15.7543 16.4948C15.6883 16.5663 15.6855 16.6856 15.7483 16.7607C15.7807 16.7997 15.8242 16.8194 15.8679 16.8194C15.9089 16.8194 15.9496 16.8023 15.9814 16.7677L16.4174 16.2949C16.4834 16.2234 16.4862 16.1041 16.4234 16.029C16.3605 15.9531 16.2563 15.9501 16.1903 16.022Z" fill="black"/>
<path d="M12.6312 12.186C12.7044 12.1246 12.7204 12.0072 12.6668 11.9232C12.6133 11.8393 12.5102 11.8207 12.4365 11.882C12.4261 11.8907 11.3941 12.7702 11.7799 14.2621C11.8011 14.344 11.8667 14.397 11.9381 14.397C11.9535 14.397 11.9692 14.3946 11.9848 14.3893C12.0721 14.3599 12.1221 14.2553 12.0964 14.1556C11.7773 12.9226 12.596 12.2155 12.6312 12.186Z" fill="black"/>
<path d="M12.9532 15.2893C12.7475 15.1766 12.5644 15.0125 12.4232 14.8148C12.3659 14.7343 12.262 14.7219 12.1912 14.7876C12.1204 14.8532 12.1099 14.9718 12.1673 15.0522C12.3387 15.2927 12.5612 15.492 12.8103 15.6285C12.8334 15.6411 12.8577 15.6471 12.8816 15.6471C12.9431 15.6471 13.002 15.6078 13.0304 15.5404C13.07 15.4466 13.0353 15.3343 12.9532 15.2893Z" fill="black"/>
<path d="M15.3089 2.70621V1.94115C15.3089 1.64642 15.0987 1.40646 14.84 1.40646H12.1468C11.8883 1.40646 11.678 1.64623 11.678 1.94115V2.70621C11.678 2.81029 11.7517 2.89442 11.843 2.89442H15.1439C15.2351 2.89442 15.3089 2.8101 15.3089 2.70621ZM14.9789 2.51801H12.0079V1.94115C12.0079 1.85383 12.0703 1.78287 12.1468 1.78287H14.84C14.9166 1.78287 14.9789 1.85383 14.9789 1.94115V2.51801V2.51801Z" fill="black"/>
<path d="M3.82998 5.92869C4.62132 5.92869 5.24125 5.51991 5.24125 4.99801C5.24125 4.4763 4.62132 4.06752 3.82998 4.06752C3.03865 4.06752 2.41871 4.4763 2.41871 4.99801C2.41871 5.51991 3.03865 5.92869 3.82998 5.92869ZM3.82998 4.44375C4.44893 4.44375 4.91132 4.73641 4.91132 4.99783C4.91132 5.25962 4.44893 5.55209 3.82998 5.55209C3.21103 5.55209 2.74864 5.25943 2.74864 4.99783C2.74864 4.73641 3.21103 4.44375 3.82998 4.44375Z" fill="black"/>
<path d="M2.3288 7.95849C1.98106 7.95849 1.69798 8.28126 1.69798 8.678C1.69798 9.07474 1.98106 9.3977 2.3288 9.3977C2.67655 9.3977 2.95946 9.07474 2.95946 8.678C2.95946 8.28126 2.67655 7.95849 2.3288 7.95849ZM2.3288 9.02129C2.16285 9.02129 2.02791 8.86734 2.02791 8.678C2.02791 8.48885 2.16285 8.3349 2.3288 8.3349C2.49459 8.3349 2.62953 8.48885 2.62953 8.678C2.62953 8.86734 2.49443 9.02129 2.3288 9.02129Z" fill="black"/>
<path d="M4.54576 15.1621C4.45453 15.1621 4.38079 15.2462 4.38079 15.3503V16.1602C4.38079 16.2642 4.45453 16.3484 4.54576 16.3484C4.63698 16.3484 4.71072 16.2642 4.71072 16.1602V15.3503C4.71072 15.2464 4.63698 15.1621 4.54576 15.1621Z" fill="black"/>
</svg>
